<svg xmlns="http://www.w3.org/2000/svg" width="360" height="224" viewBox="0 0 360 224"><defs><linearGradient id="sky" x1="0" x2="0" y1="0" y2="1"><stop offset="0%" stop-color="#87CEEB"/><stop offset="50%" stop-color="#4FA8C8"/><stop offset="100%" stop-color="#1A6E8E"/></linearGradient><linearGradient id="wave1" x1="0" x2="0" y1="0" y2="1"><stop offset="0%" stop-color="#2196F3" stop-opacity=".6"/><stop offset="100%" stop-color="#0D47A1" stop-opacity=".8"/></linearGradient></defs><rect width="360" height="224" fill="url(#sky)"/><ellipse cx="80" cy="40" fill="#fff" opacity=".5" rx="40" ry="16"/><ellipse cx="60" cy="36" fill="#fff" opacity=".6" rx="24" ry="12"/><ellipse cx="260" cy="55" fill="#fff" opacity=".4" rx="30" ry="12"/><path fill="url(#wave1)" d="M0,140 Q45,125 90,140 Q135,155 180,140 Q225,125 270,140 Q315,155 360,140 L360,224 L0,224 Z"/><path fill="#1565C0" d="M0,160 Q45,145 90,160 Q135,175 180,160 Q225,145 270,160 Q315,175 360,160 L360,224 L0,224 Z" opacity=".5"/><path fill="#0D47A1" d="M0,180 Q45,170 90,180 Q135,190 180,180 Q225,170 270,180 Q315,190 360,180 L360,224 L0,224 Z" opacity=".4"/><circle cx="280" cy="30" r="20" fill="#FFD54F" opacity=".8"/><ellipse cx="280" cy="160" fill="#FFD54F" opacity=".2" rx="3" ry="30"/></svg>