<svg xmlns="http://www.w3.org/2000/svg" width="360" height="224" viewBox="0 0 360 224"><defs><linearGradient id="sunset-sky" x1="0" x2="0" y1="0" y2="1"><stop offset="0%" stop-color="#1A0533"/><stop offset="25%" stop-color="#6A1B4D"/><stop offset="50%" stop-color="#E74C3C"/><stop offset="75%" stop-color="#F39C12"/><stop offset="100%" stop-color="#FFD93D"/></linearGradient><radialGradient id="sun-glow" cx="50%" cy="65%" r="35%"><stop offset="0%" stop-color="#FFD93D" stop-opacity=".9"/><stop offset="50%" stop-color="#F39C12" stop-opacity=".4"/><stop offset="100%" stop-color="#E74C3C" stop-opacity="0"/></radialGradient></defs><rect width="360" height="224" fill="url(#sunset-sky)"/><circle cx="180" cy="145" r="120" fill="url(#sun-glow)"/><circle cx="180" cy="150" r="28" fill="#FFD93D" opacity=".9"/><circle cx="180" cy="150" r="22" fill="#FFF176"/><ellipse cx="90" cy="130" fill="#E74C3C" opacity=".3" rx="60" ry="10"/><ellipse cx="280" cy="125" fill="#E74C3C" opacity=".25" rx="50" ry="8"/><ellipse cx="180" cy="120" fill="#6A1B4D" opacity=".2" rx="80" ry="6"/><path fill="#1A0533" d="M0,170 Q30,160 60,168 Q90,176 120,165 Q150,155 180,162 Q210,170 240,160 Q270,152 300,163 Q330,174 360,165 L360,224 L0,224 Z" opacity=".7"/><rect width="360" height="39" x="0" y="185" fill="#1A0533" opacity=".85"/></svg>