<svg xmlns="http://www.w3.org/2000/svg" width="500" height="500" fill="none" viewBox="-18 -18 58 58"><defs><style>.drag-all{transform-origin:11px 13px;animation:drag-stretch .4s ease-in-out infinite alternate}.drag-hat{transform-origin:12px 5px;animation:drag-hat-wobble .35s ease-in-out infinite alternate}.drag-shadow{transform-origin:11px 22px;animation:drag-shadow .4s ease-in-out infinite alternate}</style></defs><ellipse cx="11" cy="22" fill="silver" class="drag-shadow" rx="5" ry=".6"/><g class="drag-all"><rect width="3" height="3" x="2" y="13" fill="#BECAFF" rx="1.5"/><rect width="12" height="13" x="5" y="7" fill="#97A0C5" rx="6"/><g class="drag-hat"><path fill="#FF5B24" stroke="#FF5B24" stroke-width=".3" d="M14.5148 7.50564L8.32217 5.85753L12.8458 1.31847L14.5148 7.50564Z"/><rect width="1" height="1" x="11" y="4" fill="#e8714a"/></g><path fill="none" stroke="#000" stroke-linecap="round" stroke-width=".7" d="M13.7 13.5L12 12.3L13.7 11"/><path fill="none" stroke="#000" stroke-linecap="round" stroke-width=".7" d="M8 11L9.7 12.3L8 13.5"/><path fill="#BECAFF" d="M16.0582 10.0631C16.6426 9.47597 17.5924 9.47377 18.1795 10.0582C18.7667 10.6426 18.7689 11.5924 18.1844 12.1795C17.6 12.7667 16.6502 12.7689 16.0631 12.1844C15.476 11.6 15.4738 10.6502 16.0582 10.0631Z"/></g></svg>