<svg xmlns="http://www.w3.org/2000/svg" width="500" height="500" fill="none" viewBox="-18 -18 58 58"><defs><style>@keyframes jg-casc{0%{transform:translate(3px,18px) scale(1.1)}15%{transform:translate(5px,6px) scale(.9)}30%{transform:translate(8px,-4px) scale(.75)}50%{transform:translate(11px,-10px) scale(.6)}70%{transform:translate(15px,-2px) scale(.8)}85%{transform:translate(18px,10px) scale(1)}}@keyframes jg-lean{0%{transform:rotate(-4deg) scaleX(1.02)}50%{transform:rotate(4deg) translateY(-1px) scaleX(.98)}}@keyframes jg-shadow{0%{transform:scaleX(1);opacity:.3}50%{transform:scaleX(.9);opacity:.2}}.jg-body{transform-origin:11px 13px;animation:jg-lean .8s ease-in-out infinite}.jg-ba{animation-delay:0s}.jg-ba,.jg-bb,.jg-bc{animation:jg-casc 2.4s ease-in-out infinite}.jg-bb{animation-delay:-.8s}.jg-bc{animation-delay:-1.6s}.jg-shadow{transform-origin:11px 22px;animation:jg-shadow .8s ease-in-out infinite}</style></defs><rect width="8" height="1" x="7" y="21" fill="#D9D9D9" rx=".3"/><ellipse cx="11" cy="22" fill="silver" class="jg-shadow" rx="6" ry=".6"/><circle cx="0" cy="0" r="1.8" fill="#0FDC00" class="jg-ba"/><circle cx="0" cy="0" r="1.8" fill="#FEBE06" class="jg-bb"/><g class="jg-body"><rect width="3" height="3" x="2" y="12" fill="#97A0C5" fill-opacity=".7" rx="1.5"/><rect width="12" height="12" x="5" y="7" fill="#97A0C5" rx="6"/><path fill="#FF5B24" stroke="#FF5B24" stroke-width=".3" d="M15.3438 9.33833L9.28918 7.49817L13.5373 4.40143L15.3438 9.33833Z"/><rect width="1" height="1" x="12" y="6" fill="#e8714a"/><rect width="2" height="2" x="10" y="11" fill="#000" rx="1"/><path stroke="#000" stroke-linecap="round" d="M9 14C9.95144 15.4272 12.0486 15.4272 13 14"/><path fill="#B6BDD6" d="M17.0582 13.0631C17.6426 12.476 18.5924 12.4738 19.1795 13.0582C19.7667 13.6426 19.7689 14.5924 19.1844 15.1795C18.6 15.7667 17.6502 15.7689 17.0631 15.1844C16.476 14.6 16.4738 13.6502 17.0582 13.0631Z"/></g><circle cx="0" cy="0" r="1.8" fill="#FE4F4F" class="jg-bc"/></svg>