<svg xmlns="http://www.w3.org/2000/svg" width="500" height="500" fill="none" viewBox="-18 -18 58 58"><defs><style>@keyframes read-tilt{0%{transform:rotate(0) translateY(0)}50%{transform:rotate(5deg) translateY(1px)}}@keyframes read-shadow{0%{transform:scaleX(1);opacity:.3}50%{transform:scaleX(1.05);opacity:.35}}@keyframes read-flip{0%{transform:scaleX(1)}50%{transform:scaleX(-1)}}.read-body{transform-origin:11px 12px;animation:read-tilt 5s ease-in-out infinite}.read-shadow{transform-origin:11px 22.5px;animation:read-shadow 5s ease-in-out infinite}.read-page{animation:read-flip 2.5s ease-in-out infinite}</style></defs><ellipse cx="11" cy="22.5" fill="silver" class="read-shadow" rx="4" ry=".6"/><g class="read-body"><rect width="12" height="12" x="5" y="6" fill="#97A0C5" rx="6"/><polygon fill="#FF6B35" points="11 1 15 7 7 7"/><rect width="1" height="1" x="10" y="2" fill="#e8714a"/><rect width="2" height="1.5" x="10" y="11.5" fill="#111827" rx=".5"/><path fill="none" stroke="#111827" stroke-linecap="round" stroke-width=".8" d="M9.5 14.5 Q11 15.5 12.5 14.5"/><rect width="3" height="3" x="4" y="14" fill="#8891b8" opacity=".7" rx="1.5"/><rect width="3" height="3" x="15" y="14" fill="#8891b8" opacity=".7" rx="1.5"/><rect width="4.5" height="5" x="6" y="16" fill="#f0ece0" rx=".5"/><rect width="4.5" height="5" x="11.5" y="16" fill="#e8e4d8" rx=".5"/><rect width="1" height="5.5" x="10.5" y="16" fill="#d0c8b0" rx=".3"/><rect width="3" height=".5" x="7" y="17.5" fill="#b0a890" opacity=".7" rx=".2"/><rect width="2" height=".5" x="7" y="18.8" fill="#b0a890" opacity=".5" rx=".2"/><g class="read-page"><rect width="2.5" height=".5" x="12.5" y="17.5" fill="#b0a890" opacity=".7" rx=".2"/></g><rect width="3" height=".5" x="12.5" y="18.8" fill="#b0a890" opacity=".5" rx=".2"/></g></svg>