<svg xmlns="http://www.w3.org/2000/svg" width="500" height="500" fill="none" viewBox="-18 -18 58 58"><defs><style>@keyframes sleep-breathe{0%{transform:scaleY(1) scaleX(1)}40%,60%{transform:scaleY(1.14) scaleX(.94)}}@keyframes sleeping-shadow-pulse{0%{transform:scaleX(1);opacity:.35}40%,60%{transform:scaleX(1.08);opacity:.28}}@keyframes sleep-zzz1{0%{opacity:0;transform:translate(14px,4px) scale(.5)}15%{opacity:.9}80%{opacity:.5}}@keyframes sleep-zzz2{0%{opacity:0;transform:translate(16px,2px) scale(.4)}15%{opacity:.85}80%{opacity:.45}}@keyframes sleep-zzz3{0%{opacity:0;transform:translate(12px,6px) scale(.35)}15%{opacity:.8}80%{opacity:.4}}.sleep-body{transform-origin:11px 15px;animation:sleep-breathe 4s ease-in-out infinite}.sleeping-shadow{transform-origin:11px 17.5px;animation:sleeping-shadow-pulse 4s ease-in-out infinite}.sleep-z1{animation:sleep-zzz1 5s ease-in-out infinite;animation-delay:0s;opacity:0}.sleep-z2{animation:sleep-zzz2 5s ease-in-out infinite;animation-delay:1.6s;opacity:0}.sleep-z3{animation:sleep-zzz3 5s ease-in-out infinite;animation-delay:3.2s;opacity:0}</style><g id="sleep-pz"><rect width="3" height=".7" x="0" y="0"/><rect width=".8" height=".8" x="1.6" y=".7"/><rect width=".8" height=".8" x=".7" y="1.5"/><rect width="3" height=".7" x="0" y="2.3"/></g></defs><use fill="#8891b8" class="sleep-z1" href="#sleep-pz"/><use fill="#a0a8c8" class="sleep-z2" href="#sleep-pz"/><use fill="#c0c8e0" class="sleep-z3" href="#sleep-pz"/><ellipse cx="11" cy="17.5" fill="silver" class="sleeping-shadow" rx="4" ry=".6"/><g class="sleep-body"><rect width="3" height="3" x="2" y="14" fill="#97A0C5" fill-opacity=".7" rx="1.5"/><rect width="16" height="10" x="3" y="7" fill="#97A0C5" rx="5"/><path fill="#FF5B24" stroke="#FF5B24" stroke-width=".3" d="M14.2041 6.84961L7.7959 6.84961L11 1.2998L14.2041 6.84961Z"/><rect width="1" height="1" x="10" y="3" fill="#e8714a"/><rect width="18" height="1" x="2" y="17" fill="#D9D9D9" rx=".3"/><path fill="#B9C3EB" d="M16.3402 14.3464C17.0804 13.6028 18.2833 13.6 19.0269 14.3402C19.7705 15.0804 19.7733 16.2833 19.0331 17.0269C18.2929 17.7705 17.0901 17.7733 16.3464 17.0331C15.6028 16.2929 15.6 15.0901 16.3402 14.3464Z"/><path stroke="#000" stroke-linecap="round" d="M8 11H11"/><path stroke="#000" stroke-linecap="round" d="M7 13C8.85289 15.1176 12.1471 15.1176 14 13"/></g></svg>