<svg xmlns="http://www.w3.org/2000/svg" width="500" height="500" fill="none" viewBox="-18 -18 58 58"><defs><style>@keyframes sw-dust{0%{transform:translate(0,0) scale(1);opacity:.8}}.sw-all{transform-origin:11px 17px;animation:sw-sway .7s ease-in-out infinite alternate}.sw-broom{transform-origin:11px 19px;animation:sw-broom .7s ease-in-out infinite alternate}.sw-dust1{animation-delay:0s}.sw-dust1,.sw-dust2,.sw-dust3{animation:sw-dust 1.4s ease-out infinite}.sw-dust2{animation-delay:.35s}.sw-dust3{animation-delay:.7s}.sw-shadow{transform-origin:11px 25px;animation:sw-shadow .7s ease-in-out infinite alternate}</style></defs><ellipse cx="11" cy="25" fill="silver" class="sw-shadow" rx="7" ry=".75"/><g class="sw-all"><g class="sw-broom"><rect width="1.2" height="9" x="9.5" y="16" fill="#c8a96e" rx=".6"/><rect width="10" height="2.5" x="5" y="23.5" fill="#e0c070" rx="1"/><line x1="6.5" x2="6" y1="24" y2="26.5" stroke="#b89040" stroke-width=".5"/><line x1="8.5" x2="8.2" y1="24" y2="26.5" stroke="#b89040" stroke-width=".5"/><line x1="10.5" x2="10.5" y1="24" y2="26.5" stroke="#b89040" stroke-width=".5"/><line x1="12.5" x2="12.8" y1="24" y2="26.5" stroke="#b89040" stroke-width=".5"/><line x1="14" x2="14.5" y1="24" y2="26.5" stroke="#b89040" stroke-width=".5"/></g><rect width="1.5" height="1.5" x="4" y="24" fill="#9098b0" class="sw-dust1" opacity=".7" rx=".5"/><rect width="1" height="1" x="2" y="23" fill="#9098b0" class="sw-dust2" opacity=".6" rx=".3"/><rect width=".8" height=".8" x="5" y="22" fill="#9098b0" class="sw-dust3" opacity=".5" rx=".3"/><rect width="3" height="3" x="7" y="14" fill="#97A0C5" fill-opacity=".75" rx="1.5"/><rect width="3" height="3" x="13" y="16" fill="#97A0C5" fill-opacity=".75" rx="1.5"/><rect width="12" height="12" x="5" y="6" fill="#97A0C5" rx="6"/><polygon fill="#FF6B35" points="11 1 15 7 7 7"/><rect width="1" height="1" x="10" y="2" fill="#e8714a"/><rect width="4" height="1.2" x="9" y="11" fill="#111827" rx=".6"/><path fill="none" stroke="#111827" stroke-linecap="round" stroke-width=".9" d="M9 14 Q11 15.5 13 14"/></g></svg>