<svg xmlns="http://www.w3.org/2000/svg" width="500" height="500" fill="none" viewBox="-18 -18 58 58"><defs><style>@keyframes think-breathe{0%{transform:translateY(0)}50%{transform:translateY(.5px)}}@keyframes think-bubble-float{0%{transform:translateY(0)}50%{transform:translateY(-.6px)}}@keyframes think-dot{0%,10%{opacity:0;transform:scale(.5)}35%,70%{opacity:1;transform:scale(1)}}@keyframes think-glow{0%{opacity:0;transform:translate(0,0) scale(1)}25%{opacity:.9;transform:translate(.5px,-1px) scale(1)}}@keyframes thinking-shadow-pulse{0%{transform:scaleX(1);opacity:.35}50%{transform:scaleX(.96);opacity:.28}}.think-body{transform-origin:11px 12px;animation:think-breathe 3.2s ease-in-out infinite}.thinking-shadow{transform-origin:14px 26.5px;animation:thinking-shadow-pulse 3.2s ease-in-out infinite}.think-bubble{animation:think-bubble-float 3s ease-in-out infinite}.tpx1{animation:think-dot 1.8s infinite 0s}.tpx2{animation:think-dot 1.8s infinite .35s}.tpx3{animation:think-dot 1.8s infinite .7s}.tgl1{animation:think-glow 2.5s ease-out infinite 0s;opacity:0}.tgl2,.tgl3{animation:think-glow 2.5s ease-out infinite .8s;opacity:0}.tgl3{animation:think-glow 2.5s ease-out infinite 1.6s}</style></defs><rect width="1.5" height="1.5" x="21" y="12" fill="#94BDFF" class="tgl1" rx=".3"/><rect width="1.2" height="1.2" x="20" y="8" fill="#94BDFF" class="tgl2" rx=".2"/><rect width="1.2" height="1.2" x="5" y="12" fill="#94BDFF" class="tgl3" rx=".2"/><ellipse cx="14" cy="26.5" fill="silver" class="thinking-shadow" rx="4" ry=".6"/><g class="think-body"><path fill="#97A0C5" fill-opacity=".7" d="M8.9418 18.0631C8.35737 17.476 7.40762 17.4738 6.82048 18.0582C6.23334 18.6426 6.23115 19.5924 6.81558 20.1795C7.40001 20.7667 8.34975 20.7689 8.93689 20.1844C9.52403 19.6 9.52623 18.6502 8.9418 18.0631Z"/><rect width="12" height="12" fill="#97A0C5" rx="6" transform="matrix(-1 0 0 1 20 11)"/><rect width="3" height="3" fill="#B6BDD6" rx="1.5" transform="matrix(4.37114e-08 1 1 -4.37114e-08 18 19)"/><path fill="#FF6B35" d="M13.0713 11.6884L18.9585 14.2193L18.2068 7.85522L13.0713 11.6884Z"/><rect width="1" height="1" x="16" y="10" fill="#e8714a"/><rect width="2" height="3" x="8" y="8" fill="#fff"/><rect width="2" height="2" x="13" y="15" fill="#000" rx="1"/><path stroke="#000" stroke-linecap="round" d="M13 18.5C12.1198 18.72 11.8162 19.8162 12.4577 20.4577L12.5 20.5"/></g><g class="think-bubble"><path fill="#fff" d="M12.083 2.91602H13V8.41602H12.083V9.33301H2.91699V8.41602H2V2.91602H2.91699V2H12.083V2.91602Z"/><rect width="1" height="1" x="4" y="5.333" fill="#605AFF" class="tpx1"/><rect width="1" height="1" x="7" y="5.333" fill="#605AFF" class="tpx2"/><rect width="1" height="1" x="10" y="5.333" fill="#605AFF" class="tpx3"/></g></svg>