<svg xmlns="http://www.w3.org/2000/svg" width="500" height="500" fill="none" viewBox="-18 -18 58 58"><defs><style>@keyframes wk-bob{0%{transform:translateY(0) scaleY(1)}30%{transform:translateY(-2px) scaleY(1.04)}60%{transform:translateY(1px) scaleY(.97)}}@keyframes wk-shadow{0%{transform:scaleX(1);opacity:.32}50%{transform:scaleX(.9);opacity:.2}}@keyframes wk-dot-flash{0%{opacity:1;transform:scale(1)}50%{opacity:.1;transform:scale(.6)}}.wk-all{transform-origin:12px 15px;animation:wk-bob .6s cubic-bezier(.36,.07,.19,.97) infinite}.wk-hand-r{transform-origin:14px 22px;animation:wk-tap-r .3s ease-in-out infinite alternate}.wk-hand-l{transform-origin:7px 22px;animation:wk-tap-l .3s ease-in-out infinite alternate}.wk-shadow{transform-origin:10px 23.5px;animation:wk-shadow 2.4s ease-in-out infinite}.wk-hat{transform-origin:15px 8px;animation:wk-hat-shake .3s ease-in-out infinite alternate}.wk-dot1{animation-delay:0s}.wk-dot1,.wk-dot2,.wk-dot3,.wk-dot4{animation:wk-dot-flash .9s ease-in-out infinite}.wk-dot2{animation-delay:.3s}.wk-dot3{animation-delay:.6s}.wk-dot4{animation-delay:.15s}</style></defs><ellipse cx="10" cy="23.5" fill="silver" class="wk-shadow" rx="7" ry=".75"/><g class="wk-all"><rect width="1.2" height="1.2" x="4" y="9" fill="#4AFF3D" class="wk-dot1" rx=".3"/><rect width="1.2" height="1.2" x="21" y="4" fill="#4AFF3D" class="wk-dot2" rx=".3"/><rect width="1.2" height="1.2" x="21" y="11" fill="#4AFF3D" class="wk-dot3" rx=".3"/><rect width="1.2" height="1.2" x="22" y="15" fill="#4AFF3D" class="wk-dot4" rx=".3"/><rect width="1" height="1" x="7" y="5" fill="#4AFF3D" class="wk-dot2" rx=".2"/><rect width="12" height="12" x="8" y="7" fill="#97A0C5" rx="6"/><g class="wk-hat"><path fill="#FF6B35" d="M16.4681 2.77162L18.7097 9.32717L11.9116 7.99068L16.4681 2.77162Z"/><rect width="1" height="1" x="14" y="5" fill="#e8714a"/></g><rect width="2" height="2" x="12" y="11" fill="#111827" rx="1"/><rect width="10" height="6" x="3.5" y="15.5" fill="#D9D9D9" stroke="#E5E7F0" stroke-width=".5" rx=".4"/><rect width="4" height=".7" x="4.5" y="17" fill="#9098b8" opacity=".7" rx=".25"/><rect width="6" height=".7" x="4.5" y="18.5" fill="#9098b8" opacity=".5" rx=".25"/><rect width="3" height=".7" x="4.5" y="20" fill="#9098b8" opacity=".6" rx=".25"/><rect width="8" height="1" x="10" y="21" fill="#fff" rx=".2"/><rect width="15" height="1" x="3" y="22" fill="#D9D9D9" rx=".3"/><rect width="1" height=".7" x="8" y="22.1" fill="#736B6B" opacity=".7" rx=".2"/><g class="wk-hand-l"><circle cx="7" cy="22" r="1.6" fill="#97A0C5" fill-opacity=".9"/></g><g class="wk-hand-r"><circle cx="14" cy="22" r="1.6" fill="#B9C3EB"/></g></g></svg>