<svg xmlns="http://www.w3.org/2000/svg" width="128" height="128" fill="none" viewBox="0 0 128 128"><rect width="112" height="112" x="8" y="8" fill="#1B1D2E" rx="16"/><rect width="88" height="72" x="20" y="24" fill="#262A44" rx="8"/><rect width="22" height="18" x="28" y="34" fill="#6D7BFF" rx="3"/><rect width="22" height="18" x="54" y="34" fill="#54D4B4" rx="3"/><rect width="20" height="18" x="80" y="34" fill="#F7C95D" rx="3"/><rect width="72" height="10" x="28" y="58" fill="#3A3F63" rx="3"/><rect width="55" height="8" x="28" y="73" fill="#3A3F63" rx="3"/><circle cx="94" cy="94" r="10" fill="#6D7BFF"/><path fill="#FFF" d="M93.8 89.5L95.7 93.3L99.8 93.9L96.8 96.8L97.5 100.9L93.8 98.9L90.2 100.9L90.9 96.8L87.9 93.9L92 93.3L93.8 89.5Z"/></svg>